# xmcd
# 
# Track frame offsets:
#     150
#     33225
#     52034
#     90591
#     116887
#     137269
#     160163
# 
# Disc length: 3039
# 
# Revision: 0
# Processed by: cddbd v1.5.2PL0 Copyright (c) Steve Scherf et al.
# Submitted via: fre:ac v1.0.17
# 
DISCID=530bdd07
DTITLE=Sanfte Klänge - Vollkommene Harmonie
DYEAR=2012
DGENRE=Meditative
TTITLE0=Morgenröte
TTITLE1=Entspannung pur
TTITLE2=Sanfte Meeresbrise
TTITLE3=Wohlige Wärme
TTITLE4=Zarte Blüte
TTITLE5=Weiches Wolkenbett
TTITLE6=Am Himmelszelt
EXTD=
EXTT0=
EXTT1=
EXTT2=
EXTT3=
EXTT4=
EXTT5=
EXTT6=
PLAYORDER=
